<?xml version="1.0" encoding="UTF-8" standalone="no" ?>
<!DOCTYPE svg PUBLIC "-//W3C//DTD SVG 1.1//EN" "http://www.w3.org/Graphics/SVG/1.1/DTD/svg11.dtd">
<svg xmlns="http://www.w3.org/2000/svg" xmlns:xlink="http://www.w3.org/1999/xlink" version="1.1" width="1080" height="1080" viewBox="0 0 1080 1080" xml:space="preserve">
<desc>Created with Fabric.js 5.2.4</desc>
<defs>
</defs>
<g transform="matrix(1 0 0 1 540 540)" id="e62ddaab-4f2d-46e1-9a03-3e7a3c14f277"  >
<rect style="stroke: none; stroke-width: 1; stroke-dasharray: none; stroke-linecap: butt; stroke-dashoffset: 0; stroke-linejoin: miter; stroke-miterlimit: 4; fill: rgb(255,255,255); fill-rule: nonzero; opacity: 1; visibility: hidden;" vector-effect="non-scaling-stroke"  x="-540" y="-540" rx="0" ry="0" width="1080" height="1080" />
</g>
<g transform="matrix(1 0 0 1 540 540)" id="197829f0-f3d8-4594-9344-331659e2afc2"  >
</g>
<g transform="matrix(0.88 0 0 0.88 540 540)"  >
<g style="" vector-effect="non-scaling-stroke"   >
		<g transform="matrix(1 0 0 1 -135.31 -6.16)"  >
<path style="stroke: none; stroke-width: 1; stroke-dasharray: none; stroke-linecap: butt; stroke-dashoffset: 0; stroke-linejoin: miter; stroke-miterlimit: 4; fill: rgb(255,255,255); fill-rule: nonzero; opacity: 1;" vector-effect="non-scaling-stroke"  transform=" translate(-447.6, -153.84)" d="M 367.44 153.84 C 367.44 206.16 401.04 242.64 447.6 242.64 C 494.16 242.64 527.76 206.16 527.76 153.83999999999997 C 527.76 101.51999999999995 494.15999999999997 65.03999999999998 447.6 65.03999999999998 C 401.0400000000001 65.03999999999998 367.44000000000005 101.51999999999998 367.44000000000005 153.83999999999997 z M 497.03999999999996 153.84 C 497.03999999999996 191.28 476.64 215.52 447.59999999999997 215.52 C 418.55999999999995 215.52 398.15999999999997 191.28 398.15999999999997 153.84 C 398.15999999999997 116.4 418.55999999999995 92.16 447.59999999999997 92.16 C 476.64 92.16 497.03999999999996 116.39999999999999 497.03999999999996 153.84 z" stroke-linecap="round" />
</g>
		<g transform="matrix(1 0 0 1 26.56 37.4)"  >
<path style="stroke: none; stroke-width: 1; stroke-dasharray: none; stroke-linecap: butt; stroke-dashoffset: 0; stroke-linejoin: miter; stroke-miterlimit: 4; fill: rgb(255,255,255); fill-rule: nonzero; opacity: 1;" vector-effect="non-scaling-stroke"  transform=" translate(-609.47, -197.4)" d="M 614.27 242.64 C 649.55 242.64 669.71 212.88 669.71 177.12 C 669.71 141.36 649.5500000000001 111.60000000000001 614.27 111.60000000000001 C 597.9499999999999 111.60000000000001 585.9499999999999 118.08000000000001 578.03 127.44000000000001 L 578.03 114.00000000000001 L 549.23 114.00000000000001 L 549.23 283.2 L 578.03 283.2 L 578.03 226.79999999999998 C 585.9499999999999 236.15999999999997 597.9499999999999 242.64 614.27 242.64 z M 577.31 173.51999999999998 C 577.31 149.76 590.75 136.79999999999998 608.51 136.79999999999998 C 629.39 136.79999999999998 640.67 153.11999999999998 640.67 177.11999999999998 C 640.67 201.11999999999998 629.39 217.43999999999997 608.51 217.43999999999997 C 590.75 217.43999999999997 577.31 204.23999999999998 577.31 180.95999999999998 z" stroke-linecap="round" />
</g>
		<g transform="matrix(1 0 0 1 161.5 17.12)"  >
<path style="stroke: none; stroke-width: 1; stroke-dasharray: none; stroke-linecap: butt; stroke-dashoffset: 0; stroke-linejoin: miter; stroke-miterlimit: 4; fill: rgb(255,255,255); fill-rule: nonzero; opacity: 1;" vector-effect="non-scaling-stroke"  transform=" translate(-744.41, -177.12)" d="M 747.65 242.64 C 772.85 242.64 792.77 229.44 801.65 207.35999999999999 L 776.93 198 C 773.0899999999999 210.96 761.81 218.16 747.65 218.16 C 729.17 218.16 716.2099999999999 204.96 714.05 183.36 L 802.3699999999999 183.36 L 802.3699999999999 173.76000000000002 C 802.3699999999999 139.20000000000002 782.9299999999998 111.60000000000002 746.4499999999999 111.60000000000002 C 709.97 111.60000000000002 686.4499999999999 140.16000000000003 686.4499999999999 177.12 C 686.4499999999999 216 711.65 242.64 747.65 242.64 z M 746.2099999999999 135.83999999999997 C 764.4499999999999 135.83999999999997 773.0899999999999 147.83999999999997 773.3299999999999 161.76 L 715.4899999999999 161.76 C 719.81 144.72 731.3299999999999 135.83999999999997 746.2099999999999 135.83999999999997 z" stroke-linecap="round" />
</g>
		<g transform="matrix(1 0 0 1 293.99 15.8)"  >
<path style="stroke: none; stroke-width: 1; stroke-dasharray: none; stroke-linecap: butt; stroke-dashoffset: 0; stroke-linejoin: miter; stroke-miterlimit: 4; fill: rgb(255,255,255); fill-rule: nonzero; opacity: 1;" vector-effect="non-scaling-stroke"  transform=" translate(-876.9, -175.8)" d="M 823.98 240 L 852.78 240 L 852.78 166.07999999999998 C 852.78 148.07999999999998 865.98 138.48 878.9399999999999 138.48 C 894.78 138.48 901.02 149.76 901.02 165.35999999999999 L 901.02 240 L 929.8199999999999 240 L 929.8199999999999 156.95999999999998 C 929.8199999999999 129.83999999999997 913.9799999999999 111.59999999999998 887.5799999999999 111.59999999999998 C 871.2599999999999 111.59999999999998 859.9799999999999 119.03999999999998 852.78 127.43999999999998 L 852.78 113.99999999999999 L 823.98 113.99999999999999 z" stroke-linecap="round" />
</g>
		<g transform="matrix(1 0 0 1 448.66 -6.16)"  >
<path style="stroke: none; stroke-width: 1; stroke-dasharray: none; stroke-linecap: butt; stroke-dashoffset: 0; stroke-linejoin: miter; stroke-miterlimit: 4; fill: rgb(255,255,255); fill-rule: nonzero; opacity: 1;" vector-effect="non-scaling-stroke"  transform=" translate(-1031.57, -153.84)" d="M 1014.17 67.68 L 948.89 240 L 979.37 240 L 994.01 200.64 L 1068.41 200.64 L 1083.2900000000002 240 L 1114.2500000000002 240 L 1048.9700000000003 67.68 z M 1030.97 101.76 L 1058.33 173.76 L 1004.0899999999999 173.76 z" stroke-linecap="round" />
</g>
		<g transform="matrix(1 0 0 1 565.42 -5.66)"  >
<path style="stroke: none; stroke-width: 1; stroke-dasharray: none; stroke-linecap: butt; stroke-dashoffset: 0; stroke-linejoin: miter; stroke-miterlimit: 4; fill: rgb(255,255,255); fill-rule: nonzero; opacity: 1;" vector-effect="non-scaling-stroke"  transform=" translate(-1148.33, -154.34)" d="M 1163.69 68.18 L 1132.97 68.18 L 1132.97 240.5 L 1163.69 240.5 z" stroke-linecap="round" />
</g>
		<g transform="matrix(1 0 0 1 -422.9 0)"  >
<path style="stroke: none; stroke-width: 1; stroke-dasharray: none; stroke-linecap: butt; stroke-dashoffset: 0; stroke-linejoin: miter; stroke-miterlimit: 4; fill: rgb(255,255,255); fill-rule: nonzero; opacity: 1;" vector-effect="non-scaling-stroke"  transform=" translate(-160.01, -160)" d="M 297.06 130.97 C 304.32 109.18 301.82 85.31 290.21 65.49 C 272.75 35.089999999999996 237.64999999999998 19.449999999999996 203.36999999999998 26.809999999999995 C 188.11999999999998 9.629999999999995 166.20999999999998 -0.14000000000000412 143.23999999999998 -3.552713678800501e-15 C 108.19999999999999 -0.08000000000000355 77.10999999999999 22.479999999999997 66.32999999999998 55.81999999999999 C 43.81999999999998 60.42999999999999 24.389999999999986 74.52 13.019999999999982 94.49 C -4.570000000000018 124.81 -0.5600000000000183 163.03 22.939999999999984 189.03 C 15.679999999999984 210.82 18.179999999999986 234.69 29.789999999999985 254.51 C 47.249999999999986 284.90999999999997 82.35 300.55 116.63 293.19 C 131.87 310.37 153.79 320.14 176.76 319.99 C 211.82 320.08 242.92 297.5 253.7 264.13 C 276.21 259.52 295.64 245.43 307.01 225.45999999999998 C 324.58 195.14 320.56 156.95 297.07 130.95 z M 176.78 299.08000000000004 C 162.75 299.1 149.16 294.19000000000005 138.39 285.20000000000005 C 138.88 284.94000000000005 139.73 284.47 140.27999999999997 284.13000000000005 L 203.99999999999997 247.33000000000004 C 207.25999999999996 245.48000000000005 209.25999999999996 242.01000000000005 209.23999999999998 238.26000000000005 L 209.23999999999998 148.43000000000006 L 236.17 163.98000000000008 C 236.45999999999998 164.12000000000006 236.64999999999998 164.40000000000006 236.69 164.72000000000008 L 236.69 239.11000000000007 C 236.65 272.19000000000005 209.86 299.01000000000005 176.78 299.08000000000004 z M 47.94 244.05000000000004 C 40.91 231.91000000000003 38.379999999999995 217.68000000000004 40.79 203.87000000000003 C 41.26 204.15000000000003 42.089999999999996 204.66000000000003 42.68 205.00000000000003 L 106.4 241.8 C 109.63000000000001 243.69 113.63000000000001 243.69 116.87 241.8 L 194.66000000000003 196.88 L 194.66000000000003 227.98 C 194.68000000000004 228.29999999999998 194.53000000000003 228.60999999999999 194.28000000000003 228.81 L 129.87000000000003 266 C 101.18000000000004 282.52 64.54000000000003 272.7 47.95000000000003 244.05 z M 31.169999999999998 104.96000000000004 C 38.17 92.80000000000004 49.22 83.50000000000003 62.379999999999995 78.67000000000004 C 62.379999999999995 79.22000000000004 62.349999999999994 80.19000000000004 62.349999999999994 80.87000000000005 L 62.349999999999994 154.48000000000005 C 62.32999999999999 158.22000000000006 64.33 161.69000000000005 67.58 163.54000000000005 L 145.37 208.45000000000005 L 118.44 224.00000000000006 C 118.17 224.18000000000006 117.83 224.21000000000006 117.53 224.08000000000007 L 53.11 186.86000000000007 C 24.48 170.2800000000001 14.659999999999997 133.65000000000006 31.16 104.97000000000007 z M 252.42999999999998 156.45000000000005 L 174.64 111.53000000000004 L 201.57 95.99000000000004 C 201.84 95.81000000000003 202.18 95.78000000000004 202.48 95.91000000000004 L 266.9 133.10000000000002 C 295.58 149.67000000000002 305.40999999999997 186.36 288.84 215.04000000000002 C 281.83 227.18 270.78999999999996 236.48000000000002 257.64 241.32000000000002 L 257.64 165.51000000000002 C 257.66999999999996 161.77 255.67999999999998 158.31000000000003 252.44 156.45000000000002 z M 279.22999999999996 116.11000000000004 C 278.75999999999993 115.82000000000004 277.92999999999995 115.32000000000004 277.34 114.98000000000005 L 213.61999999999998 78.18000000000005 C 210.39 76.29000000000005 206.39 76.29000000000005 203.14999999999998 78.18000000000005 L 125.35999999999997 123.10000000000005 L 125.35999999999997 92.00000000000006 C 125.33999999999997 91.68000000000006 125.48999999999997 91.37000000000006 125.73999999999997 91.17000000000006 L 190.14999999999998 54.01000000000006 C 218.83999999999997 37.460000000000065 255.51999999999998 47.31000000000006 272.05999999999995 76.01000000000006 C 279.04999999999995 88.13000000000007 281.5799999999999 102.32000000000006 279.2099999999999 116.11000000000007 z M 110.71999999999997 171.54000000000005 L 83.77999999999997 155.99000000000004 C 83.48999999999997 155.85000000000005 83.29999999999997 155.57000000000005 83.25999999999998 155.25000000000003 L 83.25999999999998 80.86000000000003 C 83.27999999999997 47.74000000000003 110.14999999999998 20.900000000000027 143.26999999999998 20.92000000000003 C 157.27999999999997 20.92000000000003 170.83999999999997 25.840000000000032 181.60999999999999 34.80000000000003 C 181.11999999999998 35.06000000000003 180.27999999999997 35.53000000000003 179.72 35.87000000000003 L 116 72.67000000000003 C 112.74 74.52000000000002 110.74 77.98000000000003 110.76 81.73000000000003 L 110.72 171.52000000000004 z M 125.34999999999997 140.00000000000006 L 159.99999999999997 119.99000000000005 L 194.64999999999998 139.99000000000007 L 194.64999999999998 180.00000000000006 L 159.99999999999997 200.00000000000006 L 125.34999999999997 180.00000000000006 z" stroke-linecap="round" />
</g>
</g>
</g>
</svg>