<?xml version="1.0" encoding="UTF-8"?>
<svg version="1.1" viewBox="0 0 2048 708" width="1481" height="512" xmlns="http://www.w3.org/2000/svg">
<path transform="translate(239,29)" d="m0 0h11l15 2 19 5 24 10 20 11 21 14 17 13 13 11 10 9 6 4 10-9 11-10 14-11 13-10 20-13 20-11 25-10 16-4 6-1h24l12 3 14 7 11 9 10 14 7 15 6 20 3 20 1 12v29l-3 31-5 29-3 12-1 2 11 3 29 10 23 10 20 10 19 12 13 10 12 11 7 7 10 14 7 15 2 8 1 14-2 13-5 13-6 11-8 10-9 10-8 7-13 10-17 11-27 14-23 10-32 11h-2l5 22 4 25 2 22v36l-2 18-4 19-7 19-7 13-9 11-10 8-14 7-14 3h-20l-20-4-20-7-19-9-20-12-18-13-16-13-14-12-8-7v-2l-5 3-8 8-11 9-12 10-18 13-18 11-21 11-21 8-21 5-8 1h-16l-15-3-12-5-13-10-9-11-9-17-6-20-3-17-1-10v-38l3-28 5-27 3-15-33-11-30-13-17-9-19-12-14-11-13-12-9-10-9-14-5-11-3-11v-21l4-14 8-15 9-11 8-9 11-9 13-10 20-12 24-12 23-9 27-9 6-1-6-27-4-26-2-22v-33l3-24 5-19 6-15 7-11 11-12 13-8 11-4zm296 31-18 4-20 8-20 11-12 8-19 14-14 12-10 9-5 5 2 4 10 11 9 11 11 13 12 16 14 19 3 4 46 6 34 6 14 3h4l4-16 5-32 2-28-1-27-3-19-6-18-5-9-9-10-9-4-4-1zm-299 1-11 4-6 5-7 11-5 12-4 17-2 20v20l2 25 5 30 4 18 3 1 36-7 42-6 17-2 8-10 14-19 14-17 11-13 7-8 8-9-2-4-7-7-11-9-12-10-17-12-18-11-15-8-21-8-14-3zm157 94-10 11-9 11-12 14-10 13v2h85l-6-9-13-16-9-11-11-12-2-3zm-23 81-41 2-5 5-11 17-13 21-14 24-14 26-11 22 2 6 15 30 13 23 15 25 11 17 10 15 1 1 46 2h40l45-2 3-1 10-16 12-19 13-22 10-18 15-28 5-11-1-5-13-26-13-23-14-24-12-19-12-18-4-2-41-2zm131 7 8 14 12 20 12 21 10 18h2l11-27 11-32v-3l-28-6-33-5zm-220 0-38 6-22 5 5 16 10 28 7 17h3l15-28 16-27 10-16v-1zm-93 19-36 12-20 9-16 8-18 11-14 11-13 13-8 13-3 8v12l4 11 7 11 12 13 14 11 15 10 22 12 26 11 27 9h4l14-41 14-34 7-16-1-6-13-30-13-35-8-23zm410 0-3 8-11 31-13 32-9 21 14 31 12 30 11 31 12-3 29-11 25-12 16-9 17-12 12-11 9-10 7-12 2-6v-13l-5-12-9-12-9-9-13-10-19-12-24-12-28-11zm-54 128-12 22-13 23-17 28v2l14-1 36-6 16-4-1-7-10-28-12-29zm-300 1-11 27-12 35 1 3 38 7 23 3h5l-7-12-17-28-13-24-6-11zm331 93-36 7-35 5-25 3-8 10-10 14-13 17-13 16-12 14-5 6 2 4 9 9 11 9 16 13 18 12 21 12 19 8 15 4 7 1h12l9-2 8-5 8-9 7-14 4-13 3-18 1-11v-25l-3-31-5-27-2-9zm-363 2-5 21-4 24-2 22v28l2 18 5 19 8 16 8 8 8 4 4 1h21l17-4 20-8 19-10 21-14 13-10 13-11 12-11v-4l-12-13-9-11-12-14-24-32-4-5-2-1-46-5-36-6-10-2zm140 16 2 4 11 14 11 13 9 11 9 10 4-2 11-12 9-11 14-18 6-9z" fill="#fff"/>
<path transform="translate(985,185)" d="m0 0h127l17 2 16 5 16 8 10 8 10 10 8 13 6 15 3 14 1 18-2 18-5 16-7 14-9 11-9 8-13 8-12 5-12 3-7 1 2 5 18 27 29 44 20 30 9 14v1h-44l-14-22-32-50-11-17-14-22-4-6-60-1v118h-37zm38 33-1 1v113h89l15-4 11-6 10-9 7-10 4-10 2-10v-16l-3-13-6-12-10-11-11-7-15-5-8-1z" fill="#fff"/>
<path transform="translate(1321,262)" d="m0 0h20l18 3 17 6 15 9 12 11 8 9 8 13 7 15 5 18 2 12 1 11v17h-174l3 17 4 12 8 15 11 12 11 8 13 6 11 3 7 1h19l16-3 16-6 12-7 10-8 4-2 11 16 3 4-1 4-12 10-14 8-11 5-17 5-12 2-11 1h-14l-21-3-16-5-16-8-12-9-13-13-10-15-7-15-5-17-2-12-1-21 2-19 4-15 5-13 8-15 11-14 8-8 15-11 17-8 19-5zm-2 28-15 4-13 7-12 11-9 13-7 16-3 15v6h141v-8l-4-17-8-16-4-6-8-9-10-7-13-6-13-3z" fill="#fff"/>
<path transform="translate(1551,262)" d="m0 0h22l15 2 17 5 13 7 10 8 8 10 6 13 3 12 1 8v156h-33l-1-22-10 9-13 8-14 6-17 4-10 1h-12l-17-3-13-5-12-7-12-11-7-10-5-11-3-11-1-8v-11l2-13 4-12 6-11 11-12 10-7 10-5 12-4 13-2h17l19 3 14 5 10 5 11 8 7 7v-46l-3-10-7-11-11-8-9-4-14-3h-19l-16 3-12 5-11 6-11 9-7 6-15-22 2-4 11-10 14-9 12-6 16-5zm-5 108-16 4-10 5-10 9-6 10-3 8-1 6v11l3 12 5 9 7 8 11 7 11 4 18 2 17-2 14-4 13-7 10-8 4-5v-43l-8-9-14-9-13-5-16-3z" fill="#fff"/>
<path transform="translate(1792,262)" d="m0 0h21l18 3 17 6 13 8 13 11 7 8-2 4-11 11-8 7-13-13-11-7-12-5-10-2h-19l-15 3-12 5-10 7-8 7-7 10-7 14-4 13-2 14v18l3 18 4 12 8 15 11 12 8 6 14 7 12 3 8 1h13l15-3 10-4 10-7 6-5 7-8 8 6 9 9 5 4-2 5-13 13-10 7-16 8-15 4-16 2h-14l-15-2-15-4-12-5-14-8-13-12-7-7-9-13-8-16-6-21-2-15v-22l3-19 7-21 9-16 7-9 9-10 10-8 15-9 16-6 14-3z" fill="#fff"/>
<path transform="translate(387,288)" d="m0 0h14l14 3 16 8 11 9 8 11 6 12 3 12v21l-4 14-7 13-9 10-7 6-10 6-12 4-13 2-15-1-13-4-13-7-12-11-9-14-5-14-1-6v-17l4-16 7-13 11-12 11-8 11-5z" fill="#fff"/>
<path transform="translate(1931,208)" d="m0 0h33l1 1v59l5-1h38l1 1v29h-44l1 143 4 10 7 6 6 2h8l10-3 6-4h3l9 22-1 4-11 7-14 4-8 1h-12l-14-3-10-5-8-7-6-10-4-15v-152h-35v-30h34z" fill="#fff"/>
</svg>
