<svg xmlns="http://www.w3.org/2000/svg" xmlns:xlink="http://www.w3.org/1999/xlink" width="331" zoomAndPan="magnify" viewBox="0 0 248.25 112.499997" height="150" preserveAspectRatio="xMidYMid meet" version="1.0"><defs><g/><clipPath id="621059c86c"><path d="M 4 5 L 85 5 L 85 105 L 4 105 Z M 4 5 " clip-rule="nonzero"/></clipPath><clipPath id="ad7d92aef7"><path d="M 93.449219 7.921875 L 83.640625 111.246094 L 0.386719 103.34375 L 10.195312 0.0195312 Z M 93.449219 7.921875 " clip-rule="nonzero"/></clipPath><clipPath id="bf42175ca5"><path d="M 83.636719 111.28125 L 93.445312 7.957031 L 10.191406 0.0546875 L 0.382812 103.378906 Z M 83.636719 111.28125 " clip-rule="nonzero"/></clipPath></defs><g clip-path="url(#621059c86c)"><g clip-path="url(#ad7d92aef7)"><g clip-path="url(#bf42175ca5)"><path fill="#d4af37" d="M 30.957031 23.539062 C 31.425781 24.519531 30.949219 25.597656 29.96875 26.066406 C 24.882812 28.390625 20.449219 31.710938 16.855469 36.050781 C 10.722656 43.515625 7.765625 52.964844 8.535156 62.582031 C 9.050781 68.996094 11.304688 74.824219 14.929688 80.03125 L 16.851562 75.535156 C 17.839844 73.011719 19.199219 70.519531 20.355469 68.195312 C 21.953125 65.164062 23.71875 62.339844 25.6875 59.34375 C 25.90625 58.992188 26.144531 58.453125 26.367188 58.097656 C 28.40625 54.363281 30.542969 51.570312 32.421875 49.503906 C 31.292969 49.582031 28.996094 50.113281 26.59375 51.757812 C 23.988281 53.570312 22.816406 56.078125 22.339844 57.15625 C 22.550781 54.929688 23.105469 51.050781 25.382812 46.777344 C 27.625 42.871094 30.484375 40.335938 32.09375 39.179688 C 33.761719 39.335938 38.582031 39.796875 42.9375 43.203125 C 47.816406 47.035156 49.210938 52.03125 49.609375 53.753906 C 48.488281 55.707031 46.484375 59.074219 42.664062 61.890625 C 37.824219 65.550781 32.878906 66.390625 30.617188 66.550781 C 31.597656 66.082031 34.945312 64.339844 36.445312 60.367188 C 37.175781 58.5625 37.148438 56.875 37.070312 55.746094 C 35.171875 58 32.886719 60.402344 30.597656 62.804688 C 28.480469 65.410156 26.546875 68.035156 24.78125 70.863281 C 23.273438 72.964844 21.929688 75.269531 20.773438 77.59375 L 17.597656 83.464844 C 18.769531 84.886719 19.964844 86.125 21.546875 87.210938 C 29.011719 93.347656 38.460938 96.300781 48.078125 95.53125 C 57.714844 94.574219 66.554688 90.171875 72.6875 82.707031 C 83.671875 69.527344 84 50.28125 73.292969 36.914062 C 72.621094 36.101562 72.726562 34.988281 73.539062 34.316406 C 74.351562 33.644531 75.464844 33.75 76.136719 34.5625 C 87.832031 49.335938 87.496094 70.636719 75.460938 85.027344 C 68.699219 93.183594 59.050781 98.253906 48.285156 99.292969 C 43.558594 99.78125 38.921875 99.339844 34.355469 98.15625 C 32.140625 99.820312 29.738281 101.460938 27.183594 102.71875 C 25.613281 103.503906 23.875 104.085938 21.964844 104.46875 C 20.058594 104.847656 18.167969 105.042969 16.179688 104.292969 C 15.269531 104.019531 14.210938 103.355469 13.539062 102.542969 C 12.867188 101.734375 12.398438 100.753906 11.914062 99.957031 C 11.164062 98.015625 10.96875 96.125 11.160156 94.085938 C 11.292969 90.730469 12.164062 87.441406 13.226562 84.175781 C 8.375 78.101562 5.5 70.902344 4.757812 62.972656 C 4.613281 60.527344 4.492188 57.894531 4.71875 55.484375 C 5.476562 47.507812 8.625 39.945312 13.898438 33.710938 C 17.894531 29.035156 22.753906 25.191406 28.414062 22.734375 C 29.410156 22.082031 30.488281 22.558594 30.957031 23.539062 Z M 14.261719 98.871094 C 14.660156 100.59375 15.484375 101.792969 16.929688 102.304688 C 18.363281 103.003906 20.050781 102.976562 21.753906 102.761719 C 23.457031 102.550781 25.179688 102.152344 26.917969 101.570312 C 29.4375 100.683594 32.007812 99.246094 34.203125 97.769531 C 28.730469 96.3125 23.5625 93.578125 19.039062 89.964844 C 17.996094 89.117188 16.972656 88.085938 15.945312 87.054688 C 14.976562 89.394531 14.375 91.769531 13.960938 94.164062 C 13.800781 95.832031 13.847656 97.332031 14.261719 98.871094 Z M 67.132812 28.84375 L 61.386719 36.15625 C 63.578125 40.671875 63.507812 45.34375 60.949219 48.65625 C 59.238281 50.925781 56.5 52.164062 53.292969 52.421875 C 53.046875 51.085938 52.628906 49.550781 52.011719 48.179688 C 50.605469 45.242188 48.441406 42.414062 45.296875 40.058594 C 42.152344 37.699219 38.917969 36.269531 35.613281 35.582031 C 34.148438 35.257812 32.648438 35.300781 31.144531 35.347656 C 30.6875 32.308594 31.152344 29.359375 32.882812 26.902344 C 35.441406 23.589844 40.054688 22.34375 45.007812 23.375 L 50.753906 16.058594 C 53.316406 12.746094 56.546875 10.246094 60.078125 8.523438 C 63.609375 6.800781 67.628906 5.871094 71.746094 5.886719 C 73.789062 13.941406 72.050781 22.386719 67.132812 28.84375 Z M 50.835938 25.050781 C 48.703125 27.84375 48.535156 31.570312 50.621094 33.265625 C 52.703125 34.960938 56.167969 33.976562 58.503906 31.019531 C 60.640625 28.226562 60.808594 24.5 58.722656 22.804688 C 56.621094 21.296875 52.992188 22.074219 50.835938 25.050781 Z M 50.835938 25.050781 " fill-opacity="1" fill-rule="nonzero"/></g></g></g><g fill="#d4af37" fill-opacity="1"><g transform="translate(52.552028, 77.659674)"><g><path d="M 2.578125 0 L 2.578125 -5.234375 L 16 -5.234375 L 17.21875 -6.46875 L 17.21875 -9.328125 L 16 -10.546875 L 5.453125 -10.546875 L 1.578125 -14.46875 L 1.578125 -21.875 L 5.453125 -25.75 L 22.296875 -25.75 L 22.296875 -20.515625 L 9.21875 -20.515625 L 8 -19.28125 L 8 -17.015625 L 9.21875 -15.796875 L 19.78125 -15.796875 L 23.65625 -11.90625 L 23.65625 -3.875 L 19.78125 0 Z M 2.578125 0 "/></g></g></g><g fill="#d4af37" fill-opacity="1"><g transform="translate(84.760646, 77.659674)"><g><path d="M 2.453125 0 L 2.453125 -25.75 L 19.671875 -25.75 L 23.546875 -21.875 L 23.546875 -11.953125 L 19.671875 -8.078125 L 8.984375 -8.078125 L 8.984375 0 Z M 8.984375 -13.03125 L 16 -13.03125 L 17.21875 -14.25 L 17.21875 -19.5625 L 16 -20.78125 L 8.984375 -20.78125 Z M 8.984375 -13.03125 "/></g></g></g><g fill="#d4af37" fill-opacity="1"><g transform="translate(115.816554, 77.659674)"><g><path d="M 0 0 L 7.546875 -25.75 L 18.171875 -25.75 L 25.71875 0 L 18.796875 0 L 17.5 -5.140625 L 8.203125 -5.140625 L 6.921875 0 Z M 9.5 -10.171875 L 16.21875 -10.171875 L 13.484375 -20.828125 L 12.234375 -20.828125 Z M 9.5 -10.171875 "/></g></g></g><g fill="#d4af37" fill-opacity="1"><g transform="translate(148.51421, 77.659674)"><g><path d="M 2.453125 0 L 2.453125 -25.75 L 19.984375 -25.75 L 23.890625 -21.875 L 23.890625 -12.640625 L 20.96875 -9.71875 L 24.875 0 L 18.3125 0 L 14.921875 -8.765625 L 8.984375 -8.765625 L 8.984375 0 Z M 8.984375 -13.734375 L 16.3125 -13.734375 L 17.53125 -14.953125 L 17.53125 -19.5625 L 16.3125 -20.78125 L 8.984375 -20.78125 Z M 8.984375 -13.734375 "/></g></g></g><g fill="#d4af37" fill-opacity="1"><g transform="translate(181.421454, 77.659674)"><g><path d="M 2.453125 0 L 2.453125 -25.75 L 8.984375 -25.75 L 8.984375 -15.515625 L 16.9375 -25.75 L 24.171875 -25.75 L 15.09375 -14.53125 L 24.171875 0 L 17.21875 0 L 11.421875 -9.953125 L 8.984375 -6.953125 L 8.984375 0 Z M 2.453125 0 "/></g></g></g><g fill="#d4af37" fill-opacity="1"><g transform="translate(176.387145, 92.335817)"><g><path d="M 2.53125 0.078125 C 2.132812 0.078125 1.78125 0.03125 1.46875 -0.0625 C 1.164062 -0.164062 0.910156 -0.296875 0.703125 -0.453125 C 0.492188 -0.609375 0.335938 -0.78125 0.234375 -0.96875 L 0.859375 -1.734375 L 0.953125 -1.734375 C 1.117188 -1.472656 1.332031 -1.265625 1.59375 -1.109375 C 1.863281 -0.960938 2.175781 -0.890625 2.53125 -0.890625 C 2.832031 -0.890625 3.0625 -0.953125 3.21875 -1.078125 C 3.375 -1.210938 3.453125 -1.390625 3.453125 -1.609375 C 3.453125 -1.742188 3.425781 -1.859375 3.375 -1.953125 C 3.320312 -2.046875 3.238281 -2.125 3.125 -2.1875 C 3.007812 -2.257812 2.859375 -2.316406 2.671875 -2.359375 L 1.921875 -2.53125 C 1.410156 -2.644531 1.03125 -2.835938 0.78125 -3.109375 C 0.53125 -3.378906 0.40625 -3.734375 0.40625 -4.171875 C 0.40625 -4.492188 0.484375 -4.773438 0.640625 -5.015625 C 0.804688 -5.265625 1.039062 -5.457031 1.34375 -5.59375 C 1.65625 -5.726562 2.03125 -5.796875 2.46875 -5.796875 C 2.90625 -5.796875 3.28125 -5.738281 3.59375 -5.625 C 3.90625 -5.507812 4.171875 -5.332031 4.390625 -5.09375 L 3.828125 -4.328125 L 3.734375 -4.328125 C 3.566406 -4.492188 3.378906 -4.617188 3.171875 -4.703125 C 2.960938 -4.796875 2.726562 -4.84375 2.46875 -4.84375 C 2.15625 -4.84375 1.914062 -4.785156 1.75 -4.671875 C 1.59375 -4.566406 1.515625 -4.414062 1.515625 -4.21875 C 1.515625 -4.039062 1.566406 -3.894531 1.671875 -3.78125 C 1.785156 -3.675781 1.984375 -3.59375 2.265625 -3.53125 L 3.015625 -3.375 C 3.578125 -3.257812 3.984375 -3.0625 4.234375 -2.78125 C 4.484375 -2.5 4.609375 -2.132812 4.609375 -1.6875 C 4.609375 -1.332031 4.53125 -1.019531 4.375 -0.75 C 4.21875 -0.488281 3.984375 -0.285156 3.671875 -0.140625 C 3.367188 0.00390625 2.988281 0.078125 2.53125 0.078125 Z M 2.53125 0.078125 "/></g></g><g transform="translate(181.299752, 92.335817)"><g><path d="M 4.59375 -5.71875 L 4.59375 -4.765625 L 2.9375 -4.765625 L 2.9375 0 L 1.8125 0 L 1.8125 -4.765625 L 0.15625 -4.765625 L 0.15625 -5.71875 Z M 4.59375 -5.71875 "/></g></g><g transform="translate(186.04026, 92.335817)"><g><path d="M 3.03125 0.078125 C 2.238281 0.078125 1.648438 -0.109375 1.265625 -0.484375 C 0.890625 -0.859375 0.703125 -1.410156 0.703125 -2.140625 L 0.703125 -5.71875 L 1.8125 -5.71875 L 1.8125 -2.15625 C 1.8125 -1.738281 1.910156 -1.425781 2.109375 -1.21875 C 2.316406 -1.007812 2.625 -0.90625 3.03125 -0.90625 C 3.84375 -0.90625 4.25 -1.320312 4.25 -2.15625 L 4.25 -5.71875 L 5.359375 -5.71875 L 5.359375 -2.140625 C 5.359375 -1.410156 5.164062 -0.859375 4.78125 -0.484375 C 4.40625 -0.109375 3.820312 0.078125 3.03125 0.078125 Z M 3.03125 0.078125 "/></g></g><g transform="translate(192.102792, 92.335817)"><g><path d="M 2.796875 -5.71875 C 3.734375 -5.71875 4.441406 -5.476562 4.921875 -5 C 5.410156 -4.519531 5.65625 -3.804688 5.65625 -2.859375 C 5.65625 -1.910156 5.410156 -1.195312 4.921875 -0.71875 C 4.441406 -0.238281 3.734375 0 2.796875 0 L 0.75 0 L 0.75 -5.71875 Z M 2.734375 -0.953125 C 3.328125 -0.953125 3.769531 -1.101562 4.0625 -1.40625 C 4.351562 -1.707031 4.5 -2.191406 4.5 -2.859375 C 4.5 -3.523438 4.351562 -4.007812 4.0625 -4.3125 C 3.769531 -4.613281 3.328125 -4.765625 2.734375 -4.765625 L 1.875 -4.765625 L 1.875 -0.953125 Z M 2.734375 -0.953125 "/></g></g><g transform="translate(198.216171, 92.335817)"><g><path d="M 1.875 0 L 0.75 0 L 0.75 -5.71875 L 1.875 -5.71875 Z M 1.875 0 "/></g></g><g transform="translate(200.836749, 92.335817)"><g><path d="M 3.125 0.078125 C 2.59375 0.078125 2.125 -0.0234375 1.71875 -0.234375 C 1.320312 -0.453125 1.007812 -0.78125 0.78125 -1.21875 C 0.5625 -1.65625 0.453125 -2.203125 0.453125 -2.859375 C 0.453125 -3.515625 0.5625 -4.0625 0.78125 -4.5 C 1.007812 -4.9375 1.320312 -5.257812 1.71875 -5.46875 C 2.125 -5.6875 2.59375 -5.796875 3.125 -5.796875 C 3.644531 -5.796875 4.101562 -5.691406 4.5 -5.484375 C 4.90625 -5.273438 5.21875 -4.945312 5.4375 -4.5 C 5.664062 -4.0625 5.78125 -3.515625 5.78125 -2.859375 C 5.78125 -2.203125 5.664062 -1.65625 5.4375 -1.21875 C 5.21875 -0.78125 4.90625 -0.453125 4.5 -0.234375 C 4.101562 -0.0234375 3.644531 0.078125 3.125 0.078125 Z M 3.125 -0.90625 C 3.601562 -0.90625 3.96875 -1.054688 4.21875 -1.359375 C 4.476562 -1.671875 4.609375 -2.171875 4.609375 -2.859375 C 4.609375 -3.546875 4.476562 -4.046875 4.21875 -4.359375 C 3.96875 -4.671875 3.601562 -4.828125 3.125 -4.828125 C 2.632812 -4.828125 2.257812 -4.671875 2 -4.359375 C 1.738281 -4.046875 1.609375 -3.546875 1.609375 -2.859375 C 1.609375 -2.171875 1.738281 -1.671875 2 -1.359375 C 2.257812 -1.054688 2.632812 -0.90625 3.125 -0.90625 Z M 3.125 -0.90625 "/></g></g></g></svg>