<svg xmlns="http://www.w3.org/2000/svg" xmlns:xlink="http://www.w3.org/1999/xlink" width="331" zoomAndPan="magnify" viewBox="0 0 248.25 112.499997" height="150" preserveAspectRatio="xMidYMid meet" version="1.0"><defs><g/><clipPath id="6ebf1b8355"><path d="M 4 5 L 85 5 L 85 105 L 4 105 Z M 4 5 " clip-rule="nonzero"/></clipPath><clipPath id="9d35dd308c"><path d="M 93.449219 7.921875 L 83.640625 111.246094 L 0.386719 103.34375 L 10.195312 0.0195312 Z M 93.449219 7.921875 " clip-rule="nonzero"/></clipPath><clipPath id="18dbdb9284"><path d="M 83.636719 111.28125 L 93.445312 7.957031 L 10.191406 0.0546875 L 0.382812 103.378906 Z M 83.636719 111.28125 " clip-rule="nonzero"/></clipPath></defs><g clip-path="url(#6ebf1b8355)"><g clip-path="url(#9d35dd308c)"><g clip-path="url(#18dbdb9284)"><path fill="#d4af37" d="M 30.957031 23.539062 C 31.425781 24.519531 30.949219 25.597656 29.96875 26.066406 C 24.882812 28.390625 20.449219 31.710938 16.855469 36.050781 C 10.722656 43.515625 7.765625 52.964844 8.535156 62.582031 C 9.050781 68.996094 11.304688 74.824219 14.929688 80.03125 L 16.851562 75.535156 C 17.839844 73.011719 19.199219 70.519531 20.355469 68.195312 C 21.953125 65.164062 23.71875 62.339844 25.6875 59.34375 C 25.90625 58.992188 26.144531 58.453125 26.367188 58.097656 C 28.40625 54.363281 30.542969 51.570312 32.421875 49.503906 C 31.292969 49.582031 28.996094 50.113281 26.59375 51.757812 C 23.988281 53.570312 22.816406 56.078125 22.339844 57.15625 C 22.550781 54.929688 23.105469 51.050781 25.382812 46.777344 C 27.625 42.871094 30.484375 40.335938 32.09375 39.179688 C 33.761719 39.335938 38.582031 39.796875 42.9375 43.203125 C 47.816406 47.035156 49.210938 52.03125 49.609375 53.753906 C 48.488281 55.707031 46.484375 59.074219 42.664062 61.890625 C 37.824219 65.550781 32.878906 66.390625 30.617188 66.550781 C 31.597656 66.082031 34.945312 64.339844 36.445312 60.367188 C 37.175781 58.5625 37.148438 56.875 37.070312 55.746094 C 35.171875 58 32.886719 60.402344 30.597656 62.804688 C 28.480469 65.410156 26.546875 68.035156 24.78125 70.863281 C 23.273438 72.964844 21.929688 75.269531 20.773438 77.59375 L 17.597656 83.464844 C 18.769531 84.886719 19.964844 86.125 21.546875 87.210938 C 29.011719 93.347656 38.460938 96.300781 48.078125 95.53125 C 57.714844 94.574219 66.554688 90.171875 72.6875 82.707031 C 83.671875 69.527344 84 50.28125 73.292969 36.914062 C 72.621094 36.101562 72.726562 34.988281 73.539062 34.316406 C 74.351562 33.644531 75.464844 33.75 76.136719 34.5625 C 87.832031 49.335938 87.496094 70.636719 75.460938 85.027344 C 68.699219 93.183594 59.050781 98.253906 48.285156 99.292969 C 43.558594 99.78125 38.921875 99.339844 34.355469 98.15625 C 32.140625 99.820312 29.738281 101.460938 27.183594 102.71875 C 25.613281 103.503906 23.875 104.085938 21.964844 104.46875 C 20.058594 104.847656 18.167969 105.042969 16.179688 104.292969 C 15.269531 104.019531 14.210938 103.355469 13.539062 102.542969 C 12.867188 101.734375 12.398438 100.753906 11.914062 99.957031 C 11.164062 98.015625 10.96875 96.125 11.160156 94.085938 C 11.292969 90.730469 12.164062 87.441406 13.226562 84.175781 C 8.375 78.101562 5.5 70.902344 4.757812 62.972656 C 4.613281 60.527344 4.492188 57.894531 4.71875 55.484375 C 5.476562 47.507812 8.625 39.945312 13.898438 33.710938 C 17.894531 29.035156 22.753906 25.191406 28.414062 22.734375 C 29.410156 22.082031 30.488281 22.558594 30.957031 23.539062 Z M 14.261719 98.871094 C 14.660156 100.59375 15.484375 101.792969 16.929688 102.304688 C 18.363281 103.003906 20.050781 102.976562 21.753906 102.761719 C 23.457031 102.550781 25.179688 102.152344 26.917969 101.570312 C 29.4375 100.683594 32.007812 99.246094 34.203125 97.769531 C 28.730469 96.3125 23.5625 93.578125 19.039062 89.964844 C 17.996094 89.117188 16.972656 88.085938 15.945312 87.054688 C 14.976562 89.394531 14.375 91.769531 13.960938 94.164062 C 13.800781 95.832031 13.847656 97.332031 14.261719 98.871094 Z M 67.132812 28.84375 L 61.386719 36.15625 C 63.578125 40.671875 63.507812 45.34375 60.949219 48.65625 C 59.238281 50.925781 56.5 52.164062 53.292969 52.421875 C 53.046875 51.085938 52.628906 49.550781 52.011719 48.179688 C 50.605469 45.242188 48.441406 42.414062 45.296875 40.058594 C 42.152344 37.699219 38.917969 36.269531 35.613281 35.582031 C 34.148438 35.257812 32.648438 35.300781 31.144531 35.347656 C 30.6875 32.308594 31.152344 29.359375 32.882812 26.902344 C 35.441406 23.589844 40.054688 22.34375 45.007812 23.375 L 50.753906 16.058594 C 53.316406 12.746094 56.546875 10.246094 60.078125 8.523438 C 63.609375 6.800781 67.628906 5.871094 71.746094 5.886719 C 73.789062 13.941406 72.050781 22.386719 67.132812 28.84375 Z M 50.835938 25.050781 C 48.703125 27.84375 48.535156 31.570312 50.621094 33.265625 C 52.703125 34.960938 56.167969 33.976562 58.503906 31.019531 C 60.640625 28.226562 60.808594 24.5 58.722656 22.804688 C 56.621094 21.296875 52.992188 22.074219 50.835938 25.050781 Z M 50.835938 25.050781 " fill-opacity="1" fill-rule="nonzero"/></g></g></g><g fill="#d4af37" fill-opacity="1"><g transform="translate(52.552028, 77.659674)"><g><path d="M 2.578125 0 L 2.578125 -5.234375 L 16 -5.234375 L 17.21875 -6.46875 L 17.21875 -9.328125 L 16 -10.546875 L 5.453125 -10.546875 L 1.578125 -14.46875 L 1.578125 -21.875 L 5.453125 -25.75 L 22.296875 -25.75 L 22.296875 -20.515625 L 9.21875 -20.515625 L 8 -19.28125 L 8 -17.015625 L 9.21875 -15.796875 L 19.78125 -15.796875 L 23.65625 -11.90625 L 23.65625 -3.875 L 19.78125 0 Z M 2.578125 0 "/></g></g></g><g fill="#d4af37" fill-opacity="1"><g transform="translate(84.760646, 77.659674)"><g><path d="M 2.453125 0 L 2.453125 -25.75 L 19.671875 -25.75 L 23.546875 -21.875 L 23.546875 -11.953125 L 19.671875 -8.078125 L 8.984375 -8.078125 L 8.984375 0 Z M 8.984375 -13.03125 L 16 -13.03125 L 17.21875 -14.25 L 17.21875 -19.5625 L 16 -20.78125 L 8.984375 -20.78125 Z M 8.984375 -13.03125 "/></g></g></g><g fill="#d4af37" fill-opacity="1"><g transform="translate(115.816554, 77.659674)"><g><path d="M 0 0 L 7.546875 -25.75 L 18.171875 -25.75 L 25.71875 0 L 18.796875 0 L 17.5 -5.140625 L 8.203125 -5.140625 L 6.921875 0 Z M 9.5 -10.171875 L 16.21875 -10.171875 L 13.484375 -20.828125 L 12.234375 -20.828125 Z M 9.5 -10.171875 "/></g></g></g><g fill="#d4af37" fill-opacity="1"><g transform="translate(148.51421, 77.659674)"><g><path d="M 2.453125 0 L 2.453125 -25.75 L 19.984375 -25.75 L 23.890625 -21.875 L 23.890625 -12.640625 L 20.96875 -9.71875 L 24.875 0 L 18.3125 0 L 14.921875 -8.765625 L 8.984375 -8.765625 L 8.984375 0 Z M 8.984375 -13.734375 L 16.3125 -13.734375 L 17.53125 -14.953125 L 17.53125 -19.5625 L 16.3125 -20.78125 L 8.984375 -20.78125 Z M 8.984375 -13.734375 "/></g></g></g><g fill="#d4af37" fill-opacity="1"><g transform="translate(181.421454, 77.659674)"><g><path d="M 2.453125 0 L 2.453125 -25.75 L 8.984375 -25.75 L 8.984375 -15.515625 L 16.9375 -25.75 L 24.171875 -25.75 L 15.09375 -14.53125 L 24.171875 0 L 17.21875 0 L 11.421875 -9.953125 L 8.984375 -6.953125 L 8.984375 0 Z M 2.453125 0 "/></g></g></g><g fill="#d4af37" fill-opacity="1"><g transform="translate(134.910981, 98.811102)"><g><path d="M 6.3125 0.203125 C 5.320312 0.203125 4.441406 0.0820312 3.671875 -0.15625 C 2.898438 -0.40625 2.257812 -0.726562 1.75 -1.125 C 1.238281 -1.519531 0.847656 -1.953125 0.578125 -2.421875 L 2.125 -4.3125 L 2.375 -4.3125 C 2.800781 -3.675781 3.34375 -3.171875 4 -2.796875 C 4.65625 -2.421875 5.425781 -2.234375 6.3125 -2.234375 C 7.0625 -2.234375 7.628906 -2.390625 8.015625 -2.703125 C 8.398438 -3.023438 8.59375 -3.46875 8.59375 -4.03125 C 8.59375 -4.363281 8.53125 -4.644531 8.40625 -4.875 C 8.28125 -5.101562 8.070312 -5.296875 7.78125 -5.453125 C 7.5 -5.617188 7.117188 -5.757812 6.640625 -5.875 L 4.796875 -6.296875 C 3.523438 -6.585938 2.570312 -7.070312 1.9375 -7.75 C 1.3125 -8.425781 1 -9.304688 1 -10.390625 C 1 -11.203125 1.203125 -11.910156 1.609375 -12.515625 C 2.015625 -13.128906 2.597656 -13.601562 3.359375 -13.9375 C 4.128906 -14.28125 5.050781 -14.453125 6.125 -14.453125 C 7.226562 -14.453125 8.171875 -14.304688 8.953125 -14.015625 C 9.734375 -13.722656 10.394531 -13.28125 10.9375 -12.6875 L 9.53125 -10.78125 L 9.296875 -10.78125 C 8.890625 -11.195312 8.425781 -11.507812 7.90625 -11.71875 C 7.382812 -11.9375 6.789062 -12.046875 6.125 -12.046875 C 5.351562 -12.046875 4.765625 -11.90625 4.359375 -11.625 C 3.960938 -11.351562 3.765625 -10.976562 3.765625 -10.5 C 3.765625 -10.050781 3.90625 -9.691406 4.1875 -9.421875 C 4.46875 -9.160156 4.957031 -8.957031 5.65625 -8.8125 L 7.515625 -8.421875 C 8.898438 -8.128906 9.90625 -7.632812 10.53125 -6.9375 C 11.15625 -6.238281 11.46875 -5.328125 11.46875 -4.203125 C 11.46875 -3.304688 11.273438 -2.53125 10.890625 -1.875 C 10.503906 -1.21875 9.925781 -0.707031 9.15625 -0.34375 C 8.382812 0.0195312 7.4375 0.203125 6.3125 0.203125 Z M 6.3125 0.203125 "/></g></g></g><g fill="#d4af37" fill-opacity="1"><g transform="translate(147.146183, 98.811102)"><g><path d="M 11.421875 -14.25 L 11.421875 -11.875 L 7.3125 -11.875 L 7.3125 0 L 4.5 0 L 4.5 -11.875 L 0.390625 -11.875 L 0.390625 -14.25 Z M 11.421875 -14.25 "/></g></g></g><g fill="#d4af37" fill-opacity="1"><g transform="translate(158.952763, 98.811102)"><g><path d="M 7.546875 0.203125 C 5.585938 0.203125 4.132812 -0.257812 3.1875 -1.1875 C 2.238281 -2.125 1.765625 -3.507812 1.765625 -5.34375 L 1.765625 -14.25 L 4.515625 -14.25 L 4.515625 -5.359375 C 4.515625 -4.316406 4.765625 -3.535156 5.265625 -3.015625 C 5.765625 -2.492188 6.523438 -2.234375 7.546875 -2.234375 C 9.566406 -2.234375 10.578125 -3.273438 10.578125 -5.359375 L 10.578125 -14.25 L 13.34375 -14.25 L 13.34375 -5.34375 C 13.34375 -3.507812 12.867188 -2.125 11.921875 -1.1875 C 10.972656 -0.257812 9.515625 0.203125 7.546875 0.203125 Z M 7.546875 0.203125 "/></g></g></g><g fill="#d4af37" fill-opacity="1"><g transform="translate(174.051937, 98.811102)"><g><path d="M 6.96875 -14.25 C 9.28125 -14.25 11.046875 -13.648438 12.265625 -12.453125 C 13.484375 -11.253906 14.09375 -9.476562 14.09375 -7.125 C 14.09375 -4.769531 13.484375 -2.992188 12.265625 -1.796875 C 11.046875 -0.597656 9.28125 0 6.96875 0 L 1.84375 0 L 1.84375 -14.25 Z M 6.8125 -2.375 C 8.28125 -2.375 9.375 -2.75 10.09375 -3.5 C 10.820312 -4.25 11.1875 -5.457031 11.1875 -7.125 C 11.1875 -8.789062 10.820312 -10 10.09375 -10.75 C 9.375 -11.5 8.28125 -11.875 6.8125 -11.875 L 4.671875 -11.875 L 4.671875 -2.375 Z M 6.8125 -2.375 "/></g></g></g><g fill="#d4af37" fill-opacity="1"><g transform="translate(189.277749, 98.811102)"><g><path d="M 4.671875 0 L 1.84375 0 L 1.84375 -14.25 L 4.671875 -14.25 Z M 4.671875 0 "/></g></g></g><g fill="#d4af37" fill-opacity="1"><g transform="translate(195.804489, 98.811102)"><g><path d="M 7.765625 0.203125 C 6.460938 0.203125 5.3125 -0.0625 4.3125 -0.59375 C 3.3125 -1.125 2.53125 -1.9375 1.96875 -3.03125 C 1.40625 -4.125 1.125 -5.488281 1.125 -7.125 C 1.125 -8.75 1.40625 -10.109375 1.96875 -11.203125 C 2.53125 -12.296875 3.3125 -13.109375 4.3125 -13.640625 C 5.3125 -14.179688 6.460938 -14.453125 7.765625 -14.453125 C 9.066406 -14.453125 10.210938 -14.1875 11.203125 -13.65625 C 12.203125 -13.125 12.984375 -12.304688 13.546875 -11.203125 C 14.109375 -10.109375 14.390625 -8.75 14.390625 -7.125 C 14.390625 -5.488281 14.109375 -4.125 13.546875 -3.03125 C 12.984375 -1.9375 12.203125 -1.125 11.203125 -0.59375 C 10.210938 -0.0625 9.066406 0.203125 7.765625 0.203125 Z M 7.765625 -2.234375 C 8.972656 -2.234375 9.894531 -2.617188 10.53125 -3.390625 C 11.164062 -4.171875 11.484375 -5.414062 11.484375 -7.125 C 11.484375 -8.820312 11.164062 -10.0625 10.53125 -10.84375 C 9.894531 -11.625 8.972656 -12.015625 7.765625 -12.015625 C 6.546875 -12.015625 5.617188 -11.625 4.984375 -10.84375 C 4.347656 -10.0625 4.03125 -8.820312 4.03125 -7.125 C 4.03125 -5.414062 4.347656 -4.171875 4.984375 -3.390625 C 5.617188 -2.617188 6.546875 -2.234375 7.765625 -2.234375 Z M 7.765625 -2.234375 "/></g></g></g></svg>